<svg id="visual" viewBox="0 0 900 600" width="900" height="600" xmlns="http://www.w3.org/2000/svg" xmlns:xlink="http://www.w3.org/1999/xlink" version="1.1"><rect x="0" y="0" width="900" height="600" fill="#001220"></rect><path d="M0 445L21.5 439.2C43 433.3 86 421.7 128.8 426.7C171.7 431.7 214.3 453.3 257.2 456.3C300 459.3 343 443.7 385.8 440.7C428.7 437.7 471.3 447.3 514.2 454.2C557 461 600 465 642.8 460C685.7 455 728.3 441 771.2 438.3C814 435.7 857 444.3 878.5 448.7L900 453L900 601L878.5 601C857 601 814 601 771.2 601C728.3 601 685.7 601 642.8 601C600 601 557 601 514.2 601C471.3 601 428.7 601 385.8 601C343 601 300 601 257.2 601C214.3 601 171.7 601 128.8 601C86 601 43 601 21.5 601L0 601Z" fill="#c62368"></path><path d="M0 445L21.5 446.2C43 447.3 86 449.7 128.8 456C171.7 462.3 214.3 472.7 257.2 477.3C300 482 343 481 385.8 475.7C428.7 470.3 471.3 460.7 514.2 456.8C557 453 600 455 642.8 462.7C685.7 470.3 728.3 483.7 771.2 481.5C814 479.3 857 461.7 878.5 452.8L900 444L900 601L878.5 601C857 601 814 601 771.2 601C728.3 601 685.7 601 642.8 601C600 601 557 601 514.2 601C471.3 601 428.7 601 385.8 601C343 601 300 601 257.2 601C214.3 601 171.7 601 128.8 601C86 601 43 601 21.5 601L0 601Z" fill="#d53867"></path><path d="M0 496L21.5 493.5C43 491 86 486 128.8 486.7C171.7 487.3 214.3 493.7 257.2 496.8C300 500 343 500 385.8 502.3C428.7 504.7 471.3 509.3 514.2 514C557 518.7 600 523.3 642.8 520.2C685.7 517 728.3 506 771.2 503.7C814 501.3 857 507.7 878.5 510.8L900 514L900 601L878.5 601C857 601 814 601 771.2 601C728.3 601 685.7 601 642.8 601C600 601 557 601 514.2 601C471.3 601 428.7 601 385.8 601C343 601 300 601 257.2 601C214.3 601 171.7 601 128.8 601C86 601 43 601 21.5 601L0 601Z" fill="#e34c67"></path><path d="M0 549L21.5 546C43 543 86 537 128.8 535.2C171.7 533.3 214.3 535.7 257.2 536.3C300 537 343 536 385.8 530.8C428.7 525.7 471.3 516.3 514.2 515.7C557 515 600 523 642.8 528.7C685.7 534.3 728.3 537.7 771.2 536.2C814 534.7 857 528.3 878.5 525.2L900 522L900 601L878.5 601C857 601 814 601 771.2 601C728.3 601 685.7 601 642.8 601C600 601 557 601 514.2 601C471.3 601 428.7 601 385.8 601C343 601 300 601 257.2 601C214.3 601 171.7 601 128.8 601C86 601 43 601 21.5 601L0 601Z" fill="#ef5f67"></path><path d="M0 550L21.5 549.7C43 549.3 86 548.7 128.8 549.3C171.7 550 214.3 552 257.2 553C300 554 343 554 385.8 558C428.7 562 471.3 570 514.2 568.3C557 566.7 600 555.3 642.8 550.7C685.7 546 728.3 548 771.2 552C814 556 857 562 878.5 565L900 568L900 601L878.5 601C857 601 814 601 771.2 601C728.3 601 685.7 601 642.8 601C600 601 557 601 514.2 601C471.3 601 428.7 601 385.8 601C343 601 300 601 257.2 601C214.3 601 171.7 601 128.8 601C86 601 43 601 21.5 601L0 601Z" fill="#fa7268"></path></svg>